# Blender 3.4.0
# www.blender.org
mtllib coin_001.mtl
o Coin.001
v 0.117506 0.000000 -1.000000
v 0.117506 0.195090 -0.980785
v 0.117506 0.382683 -0.923880
v 0.117506 0.555570 -0.831470
v 0.117506 0.707107 -0.707107
v 0.117506 0.831470 -0.555570
v 0.117506 0.923880 -0.382683
v 0.117506 0.980785 -0.195090
v 0.117506 1.000000 0.000000
v 0.117506 0.980785 0.195090
v 0.117506 0.923880 0.382683
v 0.117506 0.831470 0.555570
v 0.117506 0.707107 0.707107
v 0.117506 0.555570 0.831470
v 0.117506 0.382683 0.923880
v 0.117506 0.195090 0.980785
v 0.117506 0.000000 1.000000
v 0.117506 -0.195090 0.980785
v 0.117506 -0.382683 0.923880
v 0.117506 -0.555570 0.831470
v 0.117506 -0.707107 0.707107
v 0.117506 -0.831470 0.555570
v 0.117506 -0.923880 0.382683
v 0.117506 -0.980785 0.195090
v 0.117506 -1.000000 0.000000
v 0.117506 -0.980785 -0.195090
v 0.117506 -0.923880 -0.382683
v 0.117506 -0.831470 -0.555570
v 0.117506 -0.707107 -0.707107
v 0.117506 -0.555570 -0.831470
v 0.117506 -0.382683 -0.923880
v 0.117506 -0.195090 -0.980785
v 0.117506 0.181113 -0.910514
v 0.117506 0.000000 -0.928352
v 0.117506 -0.181113 -0.910514
v 0.117506 -0.355265 -0.857686
v 0.117506 -0.515765 -0.771897
v 0.117506 -0.656444 -0.656444
v 0.117506 -0.771897 -0.515765
v 0.117506 -0.857686 -0.355265
v 0.117506 -0.910514 -0.181113
v 0.117506 -0.928352 0.000000
v 0.117506 -0.910514 0.181113
v 0.117506 -0.857686 0.355265
v 0.117506 -0.771897 0.515765
v 0.117506 -0.656444 0.656444
v 0.117506 -0.515765 0.771897
v 0.117506 -0.355265 0.857686
v 0.117506 -0.181113 0.910514
v 0.117506 0.000000 0.928352
v 0.117506 0.181113 0.910514
v 0.117506 0.355265 0.857686
v 0.117506 0.515765 0.771897
v 0.117506 0.656444 0.656444
v 0.117506 0.771897 0.515765
v 0.117506 0.857686 0.355265
v 0.117506 0.910514 0.181113
v 0.117506 0.928352 0.000000
v 0.117506 0.910514 -0.181113
v 0.117506 0.857686 -0.355265
v 0.117506 0.771897 -0.515765
v 0.117506 0.656444 -0.656444
v 0.117506 0.515765 -0.771897
v 0.117506 0.355265 -0.857686
v 0.064051 0.174521 -0.877377
v 0.064051 -0.000000 -0.894566
v 0.064051 0.342336 -0.826471
v 0.064051 -0.174521 -0.877377
v 0.064051 -0.342336 -0.826471
v 0.064051 -0.496994 -0.743804
v 0.064051 -0.632554 -0.632554
v 0.064051 -0.743804 -0.496994
v 0.064051 -0.826471 -0.342336
v 0.064051 -0.877377 -0.174521
v 0.064051 -0.894566 -0.000000
v 0.064051 -0.877377 0.174521
v 0.064051 -0.826471 0.342336
v 0.064051 -0.743804 0.496994
v 0.064051 -0.632554 0.632554
v 0.064051 -0.496994 0.743804
v 0.064051 -0.342336 0.826471
v 0.064051 -0.174521 0.877377
v 0.064051 -0.000000 0.894566
v 0.064051 0.174521 0.877377
v 0.064051 0.342336 0.826471
v 0.064051 0.496994 0.743804
v 0.064051 0.632554 0.632554
v 0.064051 0.743804 0.496994
v 0.064051 0.826471 0.342336
v 0.064051 0.877377 0.174521
v 0.064051 0.894566 -0.000000
v 0.064051 0.877377 -0.174521
v 0.064051 0.826471 -0.342336
v 0.064051 0.743804 -0.496994
v 0.064051 0.632554 -0.632554
v 0.064051 0.496994 -0.743804
v -0.117506 0.000000 -1.000000
v -0.117506 0.195090 -0.980785
v -0.117506 0.382683 -0.923880
v -0.117506 0.555570 -0.831470
v -0.117506 0.707107 -0.707107
v -0.117506 0.831470 -0.555570
v -0.117506 0.923880 -0.382683
v -0.117506 0.980785 -0.195090
v -0.117506 1.000000 0.000000
v -0.117506 0.980785 0.195090
v -0.117506 0.923880 0.382683
v -0.117506 0.831470 0.555570
v -0.117506 0.707107 0.707107
v -0.117506 0.555570 0.831470
v -0.117506 0.382683 0.923880
v -0.117506 0.195090 0.980785
v -0.117506 0.000000 1.000000
v -0.117506 -0.195090 0.980785
v -0.117506 -0.382683 0.923880
v -0.117506 -0.555570 0.831470
v -0.117506 -0.707107 0.707107
v -0.117506 -0.831470 0.555570
v -0.117506 -0.923880 0.382683
v -0.117506 -0.980785 0.195090
v -0.117506 -1.000000 0.000000
v -0.117506 -0.980785 -0.195090
v -0.117506 -0.923880 -0.382683
v -0.117506 -0.831470 -0.555570
v -0.117506 -0.707107 -0.707107
v -0.117506 -0.555570 -0.831470
v -0.117506 -0.382683 -0.923880
v -0.117506 -0.195090 -0.980785
v -0.117506 0.181113 -0.910514
v -0.117506 0.000000 -0.928352
v -0.117506 -0.181113 -0.910514
v -0.117506 -0.355265 -0.857686
v -0.117506 -0.515765 -0.771897
v -0.117506 -0.656444 -0.656444
v -0.117506 -0.771897 -0.515765
v -0.117506 -0.857686 -0.355265
v -0.117506 -0.910514 -0.181113
v -0.117506 -0.928352 0.000000
v -0.117506 -0.910514 0.181113
v -0.117506 -0.857686 0.355265
v -0.117506 -0.771897 0.515765
v -0.117506 -0.656444 0.656444
v -0.117506 -0.515765 0.771897
v -0.117506 -0.355265 0.857686
v -0.117506 -0.181113 0.910514
v -0.117506 0.000000 0.928352
v -0.117506 0.181113 0.910514
v -0.117506 0.355265 0.857686
v -0.117506 0.515765 0.771897
v -0.117506 0.656444 0.656444
v -0.117506 0.771897 0.515765
v -0.117506 0.857686 0.355265
v -0.117506 0.910514 0.181113
v -0.117506 0.928352 0.000000
v -0.117506 0.910514 -0.181113
v -0.117506 0.857686 -0.355265
v -0.117506 0.771897 -0.515765
v -0.117506 0.656444 -0.656444
v -0.117506 0.515765 -0.771897
v -0.117506 0.355265 -0.857686
v -0.064051 0.174521 -0.877377
v -0.064051 -0.000000 -0.894566
v -0.064051 0.342336 -0.826471
v -0.064051 -0.174521 -0.877377
v -0.064051 -0.342336 -0.826471
v -0.064051 -0.496994 -0.743804
v -0.064051 -0.632554 -0.632554
v -0.064051 -0.743804 -0.496994
v -0.064051 -0.826471 -0.342336
v -0.064051 -0.877377 -0.174521
v -0.064051 -0.894566 -0.000000
v -0.064051 -0.877377 0.174521
v -0.064051 -0.826471 0.342336
v -0.064051 -0.743804 0.496994
v -0.064051 -0.632554 0.632554
v -0.064051 -0.496994 0.743804
v -0.064051 -0.342336 0.826471
v -0.064051 -0.174521 0.877377
v -0.064051 -0.000000 0.894566
v -0.064051 0.174521 0.877377
v -0.064051 0.342336 0.826471
v -0.064051 0.496994 0.743804
v -0.064051 0.632554 0.632554
v -0.064051 0.743804 0.496994
v -0.064051 0.826471 0.342336
v -0.064051 0.877377 0.174521
v -0.064051 0.894566 -0.000000
v -0.064051 0.877377 -0.174521
v -0.064051 0.826471 -0.342336
v -0.064051 0.743804 -0.496994
v -0.064051 0.632554 -0.632554
v -0.064051 0.496994 -0.743804
v 0.064051 -0.000000 -0.000000
v -0.064051 -0.000000 -0.000000
vn -0.0000 -0.9952 0.0980
vn -0.0000 0.8819 0.4714
vn -0.0000 -0.9952 -0.0980
vn -0.0000 0.7730 0.6344
vn -0.0000 -0.9569 -0.2903
vn -0.0000 0.6344 0.7730
vn -0.0000 -0.8819 -0.4714
vn -0.0000 0.4714 0.8819
vn -0.0000 0.0980 -0.9952
vn -0.0000 -0.7730 -0.6344
vn -0.0000 0.2903 0.9569
vn -0.0000 0.2903 -0.9569
vn -0.0000 -0.6344 -0.7730
vn -0.0000 0.0980 0.9952
vn -0.0000 0.4714 -0.8819
vn -0.0000 -0.4714 -0.8819
vn -0.0000 -0.0980 0.9952
vn -0.0000 0.6344 -0.7730
vn -0.0000 -0.2903 -0.9569
vn -0.0000 -0.2903 0.9569
vn -0.0000 0.7730 -0.6344
vn -0.0000 -0.0980 -0.9952
vn -0.0000 -0.4714 0.8819
vn -0.0000 0.8819 -0.4714
vn -0.0000 -0.6344 0.7730
vn -0.0000 0.9569 -0.2903
vn -0.0000 -0.7730 0.6344
vn -0.0000 0.9952 -0.0980
vn -0.0000 -0.8819 0.4714
vn -0.0000 0.9952 0.0980
vn -0.0000 -0.9569 0.2903
vn 0.5324 0.5370 0.6543
vn 1.0000 -0.0000 -0.0000
vn 0.5324 -0.2457 -0.8100
vn 0.5324 0.6543 0.5370
vn 0.5324 -0.3990 -0.7465
vn 0.5324 0.7465 0.3990
vn 0.5324 -0.5370 -0.6543
vn 0.5324 0.8100 0.2457
vn 0.5324 -0.6543 -0.5370
vn 0.5324 0.8424 0.0830
vn 0.5324 -0.7465 -0.3990
vn 0.5324 0.8424 -0.0830
vn 0.5324 -0.8100 -0.2457
vn 0.5324 0.8100 -0.2457
vn 0.5324 -0.8424 -0.0830
vn 0.5324 0.7465 -0.3990
vn 0.5324 -0.8424 0.0830
vn 0.5324 0.6543 -0.5370
vn 0.5324 -0.0830 0.8424
vn 0.5324 -0.8100 0.2457
vn 0.5324 0.5370 -0.6543
vn 0.5324 -0.2457 0.8100
vn 0.5324 -0.7465 0.3990
vn 0.5324 0.3990 -0.7465
vn 0.5324 0.0830 0.8424
vn 0.5324 -0.6543 0.5370
vn 0.5324 0.2457 -0.8100
vn 0.5324 0.2457 0.8100
vn 0.5324 -0.5370 0.6543
vn 0.5324 0.0830 -0.8424
vn 0.5324 0.3990 0.7465
vn 0.5324 -0.3990 0.7465
vn 0.5324 -0.0830 -0.8424
vn -0.5324 0.5370 0.6543
vn -1.0000 -0.0000 -0.0000
vn -0.5324 -0.2457 -0.8100
vn -0.5324 0.6543 0.5370
vn -0.5324 -0.3990 -0.7465
vn -0.5324 0.7465 0.3990
vn -0.5324 -0.5370 -0.6543
vn -0.5324 0.8100 0.2457
vn -0.5324 -0.6543 -0.5370
vn -0.5324 0.8424 0.0830
vn -0.5324 -0.7465 -0.3990
vn -0.5324 0.8424 -0.0830
vn -0.5324 -0.8100 -0.2457
vn -0.5324 0.8100 -0.2457
vn -0.5324 -0.8424 -0.0830
vn -0.5324 0.7465 -0.3990
vn -0.5324 -0.8424 0.0830
vn -0.5324 0.6543 -0.5370
vn -0.5324 -0.0830 0.8424
vn -0.5324 -0.8100 0.2457
vn -0.5324 0.5370 -0.6543
vn -0.5324 -0.2457 0.8100
vn -0.5324 -0.7465 0.3990
vn -0.5324 0.3990 -0.7465
vn -0.5324 0.0830 0.8424
vn -0.5324 -0.6543 0.5370
vn -0.5324 0.2457 -0.8100
vn -0.5324 0.2457 0.8100
vn -0.5324 -0.5370 0.6543
vn -0.5324 0.0830 -0.8424
vn -0.5324 0.3990 0.7465
vn -0.5324 -0.3990 0.7465
vn -0.5324 -0.0830 -0.8424
vn -0.0000 0.9569 0.2903
vt 0.670551 0.204372
vt 0.685218 0.196946
vt 0.674780 0.182341
vt 0.678121 0.179267
vt 0.674780 0.159902
vt 0.674780 0.160747
vt 0.670497 0.137865
vt 0.674859 0.142561
vt 0.662032 0.117079
vt 0.678336 0.124720
vt 0.649692 0.098371
vt 0.685239 0.107720
vt 0.633971 0.082482
vt 0.695407 0.092219
vt 0.615520 0.070024
vt 0.708510 0.078885
vt 0.595115 0.061418
vt 0.724066 0.068300
vt 0.741475 0.060926
vt 0.573431 0.056999
vt 0.760055 0.057092
vt 0.551290 0.056976
vt 0.529563 0.061373
vt 0.779072 0.056976
vt 0.509120 0.070027
vt 0.797771 0.060604
vt 0.490779 0.082596
vt 0.815406 0.067849
vt 0.475264 0.098577
vt 0.831272 0.078431
vt 0.463172 0.117326
vt 0.844738 0.091931
vt 0.454919 0.138092
vt 0.855277 0.107805
vt 0.450701 0.160075
vt 0.862483 0.125395
vt 0.450722 0.182493
vt 0.866151 0.143954
vt 0.455042 0.204490
vt 0.866151 0.162779
vt 0.463490 0.225212
vt 0.862484 0.181165
vt 0.475682 0.243888
vt 0.855333 0.198385
vt 0.491233 0.259827
vt 0.845041 0.213809
vt 0.509589 0.272381
vt 0.831953 0.226992
vt 0.530044 0.281037
vt 0.816198 0.237743
vt 0.551788 0.285443
vt 0.798514 0.245059
vt 0.573951 0.285425
vt 0.779783 0.248656
vt 0.595653 0.280991
vt 0.760768 0.248486
vt 0.616043 0.272331
vt 0.742176 0.244600
vt 0.634351 0.259797
vt 0.724700 0.237161
vt 0.649939 0.243871
vt 0.708999 0.226453
vt 0.662171 0.225155
vt 0.695666 0.212881
vt 0.684726 0.177336
vt 0.691351 0.193723
vt 0.701048 0.208522
vt 0.713423 0.221136
vt 0.728000 0.231089
vt 0.744228 0.238003
vt 0.761490 0.241611
vt 0.779135 0.241762
vt 0.796498 0.238417
vt 0.812883 0.231651
vt 0.827574 0.221722
vt 0.839800 0.209550
vt 0.849354 0.195220
vt 0.855971 0.179212
vt 0.859349 0.162132
vt 0.859320 0.144649
vt 0.855881 0.127407
vt 0.849171 0.111066
vt 0.839384 0.096332
vt 0.826886 0.083802
vt 0.812164 0.073979
vt 0.795801 0.067248
vt 0.778447 0.063869
vt 0.760792 0.063960
vt 0.743537 0.067499
vt 0.727359 0.074318
vt 0.712889 0.084116
vt 0.700681 0.096467
vt 0.691182 0.110837
vt 0.684708 0.126616
vt 0.681454 0.143201
vt 0.681502 0.160099
vt 0.690506 0.175624
vt 0.509408 0.853352
vt 0.696737 0.190929
vt 0.536589 0.894031
vt 0.687324 0.159457
vt 0.490686 0.808152
vt 0.705784 0.204731
vt 0.571184 0.928626
vt 0.717323 0.216501
vt 0.611863 0.955806
vt 0.730920 0.225788
vt 0.657063 0.974529
vt 0.746055 0.232236
vt 0.705047 0.984074
vt 0.762151 0.235596
vt 0.753972 0.984074
vt 0.778596 0.235728
vt 0.801956 0.974529
vt 0.794760 0.232603
vt 0.847156 0.955806
vt 0.810018 0.226318
vt 0.887835 0.928626
vt 0.823820 0.217059
vt 0.922430 0.894031
vt 0.835224 0.205805
vt 0.949611 0.853352
vt 0.844127 0.192434
vt 0.968333 0.808152
vt 0.850276 0.177486
vt 0.977878 0.760167
vt 0.853399 0.161546
vt 0.977878 0.711243
vt 0.853343 0.145241
vt 0.968333 0.663259
vt 0.850094 0.129155
vt 0.949611 0.618059
vt 0.843811 0.113898
vt 0.922430 0.577380
vt 0.834678 0.100160
vt 0.887835 0.542785
vt 0.823025 0.088482
vt 0.847156 0.515604
vt 0.809300 0.079327
vt 0.801956 0.496882
vt 0.794045 0.073053
vt 0.753972 0.487337
vt 0.777865 0.069900
vt 0.705048 0.487337
vt 0.761401 0.069978
vt 0.657063 0.496882
vt 0.745305 0.073266
vt 0.611863 0.515604
vt 0.730206 0.079610
vt 0.571184 0.542785
vt 0.716691 0.088730
vt 0.536589 0.577380
vt 0.705273 0.100231
vt 0.509408 0.618059
vt 0.696372 0.113622
vt 0.490686 0.663259
vt 0.690290 0.128338
vt 0.481141 0.711243
vt 0.687221 0.143800
vt 0.481141 0.760167
vt 0.647460 0.197316
vt 0.678592 0.373160
vt 0.650699 0.179798
vt 0.685900 0.390650
vt 0.650698 0.161949
vt 0.696479 0.406369
vt 0.647282 0.144486
vt 0.709920 0.419711
vt 0.640571 0.128055
vt 0.725703 0.430159
vt 0.630822 0.113280
vt 0.743219 0.437310
vt 0.618414 0.100725
vt 0.761794 0.440884
vt 0.603838 0.090865
vt 0.780712 0.440728
vt 0.587803 0.084050
vt 0.799223 0.436824
vt 0.816523 0.429323
vt 0.570767 0.080606
vt 0.831887 0.418739
vt 0.553393 0.080653
vt 0.536362 0.084183
vt 0.844887 0.405403
vt 0.520351 0.091061
vt 0.855046 0.389752
vt 0.505997 0.101020
vt 0.862002 0.372298
vt 0.493869 0.113674
vt 0.865453 0.353824
vt 0.484437 0.128541
vt 0.865453 0.334865
vt 0.478052 0.145074
vt 0.861804 0.316264
vt 0.474707 0.162601
vt 0.854618 0.298779
vt 0.474765 0.180413
vt 0.844176 0.283085
vt 0.478227 0.197864
vt 0.830902 0.269791
vt 0.484962 0.214312
vt 0.815352 0.259402
vt 0.494574 0.229140
vt 0.798134 0.252285
vt 0.506834 0.241721
vt 0.779918 0.248668
vt 0.521284 0.251592
vt 0.761312 0.248656
vt 0.537363 0.258373
vt 0.742720 0.252287
vt 0.554437 0.261802
vt 0.725180 0.259594
vt 0.571828 0.261746
vt 0.709425 0.270206
vt 0.588845 0.258208
vt 0.696072 0.283675
vt 0.604816 0.251320
vt 0.685606 0.299478
vt 0.619112 0.241336
vt 0.678417 0.317014
vt 0.631363 0.228670
vt 0.674780 0.335618
vt 0.640934 0.213811
vt 0.674838 0.354577
vt 0.691979 0.387398
vt 0.685190 0.371157
vt 0.681701 0.353899
vt 0.681643 0.336291
vt 0.685017 0.319011
vt 0.691690 0.302721
vt 0.701409 0.288044
vt 0.713810 0.275539
vt 0.728434 0.265687
vt 0.744699 0.258890
vt 0.761966 0.255455
vt 0.779237 0.255395
vt 0.796150 0.258754
vt 0.812133 0.265379
vt 0.826556 0.275043
vt 0.838864 0.287401
vt 0.848545 0.301980
vt 0.855202 0.318221
vt 0.858586 0.335508
vt 0.858606 0.353174
vt 0.855442 0.370378
vt 0.849004 0.386613
vt 0.839601 0.401158
vt 0.827529 0.413541
vt 0.813241 0.423337
vt 0.797159 0.430276
vt 0.779989 0.433889
vt 0.762437 0.434035
vt 0.745197 0.430720
vt 0.728936 0.424083
vt 0.714283 0.414383
vt 0.701803 0.401995
vt 0.697285 0.384525
vt 0.421812 0.331915
vt 0.690958 0.369374
vt 0.456407 0.366510
vt 0.706443 0.398143
vt 0.381133 0.304734
vt 0.687707 0.353275
vt 0.483588 0.407189
vt 0.687656 0.336849
vt 0.502310 0.452389
vt 0.690805 0.320729
vt 0.511855 0.500373
vt 0.697033 0.305534
vt 0.511855 0.549297
vt 0.706101 0.291845
vt 0.502311 0.597282
vt 0.717670 0.280188
vt 0.483588 0.642482
vt 0.731313 0.271007
vt 0.456407 0.683161
vt 0.746463 0.264652
vt 0.421813 0.717755
vt 0.762612 0.261394
vt 0.381133 0.744936
vt 0.778667 0.261285
vt 0.335933 0.763659
vt 0.794435 0.264421
vt 0.287949 0.773204
vt 0.809335 0.270617
vt 0.239025 0.773204
vt 0.822768 0.279647
vt 0.191040 0.763659
vt 0.834231 0.291192
vt 0.145840 0.744936
vt 0.843240 0.304802
vt 0.105161 0.717756
vt 0.849428 0.319957
vt 0.070566 0.683161
vt 0.852569 0.336097
vt 0.043386 0.642482
vt 0.852581 0.352658
vt 0.024663 0.597282
vt 0.849684 0.368728
vt 0.015118 0.549297
vt 0.843688 0.383909
vt 0.015118 0.500373
vt 0.834954 0.397471
vt 0.024663 0.452389
vt 0.823701 0.409014
vt 0.043385 0.407189
vt 0.810379 0.418104
vt 0.070566 0.366510
vt 0.795336 0.424558
vt 0.105161 0.331915
vt 0.779328 0.427911
vt 0.145840 0.304734
vt 0.762970 0.428041
vt 0.191040 0.286011
vt 0.746900 0.424946
vt 0.239025 0.276467
vt 0.731740 0.418752
vt 0.287949 0.276467
vt 0.718078 0.409701
vt 0.335933 0.286011
vt 0.729510 0.735705
vt 0.263487 0.524835
s 0
usemtl Material.001
f 24/47/1 120/207/1 121/209/1 25/49/1
f 11/22/2 107/182/2 108/183/2 12/23/2
f 25/49/3 121/209/3 122/211/3 26/51/3
f 12/23/4 108/183/4 109/185/4 13/25/4
f 26/51/5 122/211/5 123/213/5 27/53/5
f 13/25/6 109/185/6 110/187/6 14/27/6
f 27/53/7 123/213/7 124/215/7 28/55/7
f 14/27/8 110/187/8 111/189/8 15/29/8
f 1/1/9 97/161/9 98/163/9 2/3/9
f 28/55/10 124/215/10 125/217/10 29/57/10
f 15/29/11 111/189/11 112/191/11 16/31/11
f 2/3/12 98/163/12 99/165/12 3/5/12
f 29/57/13 125/217/13 126/219/13 30/59/13
f 16/31/14 112/191/14 113/193/14 17/33/14
f 3/5/15 99/165/15 100/167/15 4/7/15
f 30/59/16 126/219/16 127/221/16 31/61/16
f 17/33/17 113/193/17 114/195/17 18/35/17
f 4/7/18 100/167/18 101/169/18 5/9/18
f 31/61/19 127/221/19 128/223/19 32/63/19
f 18/35/20 114/195/20 115/197/20 19/37/20
f 5/9/21 101/169/21 102/171/21 6/11/21
f 32/63/22 128/223/22 97/161/22 1/1/22
f 19/37/23 115/197/23 116/199/23 20/39/23
f 6/11/24 102/171/24 103/173/24 7/13/24
f 20/39/25 116/199/25 117/201/25 21/41/25
f 7/13/26 103/173/26 104/175/26 8/15/26
f 21/41/27 117/201/27 118/203/27 22/43/27
f 8/15/28 104/175/28 105/177/28 9/17/28
f 22/43/29 118/203/29 119/205/29 23/45/29
f 9/17/30 105/177/30 106/180/30 10/20/30
f 23/45/31 119/205/31 120/207/31 24/47/31
f 37/69/32 70/107/32 71/109/32 38/70/32
f 2/4/33 33/65/33 34/66/33 1/2/33
f 1/2/33 34/66/33 35/67/33 32/64/33
f 32/64/33 35/67/33 36/68/33 31/62/33
f 31/62/33 36/68/33 37/69/33 30/60/33
f 30/60/33 37/69/33 38/70/33 29/58/33
f 29/58/33 38/70/33 39/71/33 28/56/33
f 28/56/33 39/71/33 40/72/33 27/54/33
f 27/54/33 40/72/33 41/73/33 26/52/33
f 26/52/33 41/73/33 42/74/33 25/50/33
f 25/50/33 42/74/33 43/75/33 24/48/33
f 24/48/33 43/75/33 44/76/33 23/46/33
f 23/46/33 44/76/33 45/77/33 22/44/33
f 22/44/33 45/77/33 46/78/33 21/42/33
f 21/42/33 46/78/33 47/79/33 20/40/33
f 20/40/33 47/79/33 48/80/33 19/38/33
f 19/38/33 48/80/33 49/81/33 18/36/33
f 18/36/33 49/81/33 50/82/33 17/34/33
f 17/34/33 50/82/33 51/83/33 16/32/33
f 16/32/33 51/83/33 52/84/33 15/30/33
f 15/30/33 52/84/33 53/85/33 14/28/33
f 14/28/33 53/85/33 54/86/33 13/26/33
f 13/26/33 54/86/33 55/87/33 12/24/33
f 12/24/33 55/87/33 56/88/33 11/21/33
f 11/21/33 56/88/33 57/89/33 10/19/33
f 10/19/33 57/89/33 58/90/33 9/18/33
f 9/18/33 58/90/33 59/91/33 8/16/33
f 8/16/33 59/91/33 60/92/33 7/14/33
f 7/14/33 60/92/33 61/93/33 6/12/33
f 6/12/33 61/93/33 62/94/33 5/10/33
f 5/10/33 62/94/33 63/95/33 4/8/33
f 4/8/33 63/95/33 64/96/33 3/6/33
f 3/6/33 64/96/33 33/65/33 2/4/33
f 72/112/33 71/110/33 193/321/33
f 51/83/34 84/135/34 85/137/34 52/84/34
f 38/70/35 71/109/35 72/111/35 39/71/35
f 52/84/36 85/137/36 86/139/36 53/85/36
f 39/71/37 72/111/37 73/113/37 40/72/37
f 53/85/38 86/139/38 87/141/38 54/86/38
f 40/72/39 73/113/39 74/115/39 41/73/39
f 54/86/40 87/141/40 88/143/40 55/87/40
f 41/73/41 74/115/41 75/117/41 42/74/41
f 55/87/42 88/143/42 89/145/42 56/88/42
f 42/74/43 75/117/43 76/119/43 43/75/43
f 56/88/44 89/145/44 90/147/44 57/89/44
f 43/75/45 76/119/45 77/121/45 44/76/45
f 57/89/46 90/147/46 91/149/46 58/90/46
f 44/76/47 77/121/47 78/123/47 45/77/47
f 58/90/48 91/149/48 92/151/48 59/91/48
f 45/77/49 78/123/49 79/125/49 46/78/49
f 33/65/50 65/97/50 66/99/50 34/66/50
f 59/91/51 92/151/51 93/153/51 60/92/51
f 46/78/52 79/125/52 80/127/52 47/79/52
f 64/96/53 67/101/53 65/97/53 33/65/53
f 60/92/54 93/153/54 94/155/54 61/93/54
f 47/79/55 80/127/55 81/129/55 48/80/55
f 34/66/56 66/99/56 68/103/56 35/67/56
f 61/93/57 94/155/57 95/157/57 62/94/57
f 48/80/58 81/129/58 82/131/58 49/81/58
f 35/67/59 68/103/59 69/105/59 36/68/59
f 62/94/60 95/157/60 96/159/60 63/95/60
f 49/81/61 82/131/61 83/133/61 50/82/61
f 36/68/62 69/105/62 70/107/62 37/69/62
f 63/95/63 96/159/63 67/101/63 64/96/63
f 50/82/64 83/133/64 84/135/64 51/83/64
f 133/229/65 134/230/65 167/269/65 166/267/65
f 98/164/66 97/162/66 130/226/66 129/225/66
f 97/162/66 128/224/66 131/227/66 130/226/66
f 128/224/66 127/222/66 132/228/66 131/227/66
f 127/222/66 126/220/66 133/229/66 132/228/66
f 126/220/66 125/218/66 134/230/66 133/229/66
f 125/218/66 124/216/66 135/231/66 134/230/66
f 124/216/66 123/214/66 136/232/66 135/231/66
f 123/214/66 122/212/66 137/233/66 136/232/66
f 122/212/66 121/210/66 138/234/66 137/233/66
f 121/210/66 120/208/66 139/235/66 138/234/66
f 120/208/66 119/206/66 140/236/66 139/235/66
f 119/206/66 118/204/66 141/237/66 140/236/66
f 118/204/66 117/202/66 142/238/66 141/237/66
f 117/202/66 116/200/66 143/239/66 142/238/66
f 116/200/66 115/198/66 144/240/66 143/239/66
f 115/198/66 114/196/66 145/241/66 144/240/66
f 114/196/66 113/194/66 146/242/66 145/241/66
f 113/194/66 112/192/66 147/243/66 146/242/66
f 112/192/66 111/190/66 148/244/66 147/243/66
f 111/190/66 110/188/66 149/245/66 148/244/66
f 110/188/66 109/186/66 150/246/66 149/245/66
f 109/186/66 108/184/66 151/247/66 150/246/66
f 108/184/66 107/181/66 152/248/66 151/247/66
f 107/181/66 106/179/66 153/249/66 152/248/66
f 106/179/66 105/178/66 154/250/66 153/249/66
f 105/178/66 104/176/66 155/251/66 154/250/66
f 104/176/66 103/174/66 156/252/66 155/251/66
f 103/174/66 102/172/66 157/253/66 156/252/66
f 102/172/66 101/170/66 158/254/66 157/253/66
f 101/170/66 100/168/66 159/255/66 158/254/66
f 100/168/66 99/166/66 160/256/66 159/255/66
f 99/166/66 98/164/66 129/225/66 160/256/66
f 171/278/66 172/280/66 194/322/66
f 147/243/67 148/244/67 181/297/67 180/295/67
f 134/230/68 135/231/68 168/271/68 167/269/68
f 148/244/69 149/245/69 182/299/69 181/297/69
f 135/231/70 136/232/70 169/273/70 168/271/70
f 149/245/71 150/246/71 183/301/71 182/299/71
f 136/232/72 137/233/72 170/275/72 169/273/72
f 150/246/73 151/247/73 184/303/73 183/301/73
f 137/233/74 138/234/74 171/277/74 170/275/74
f 151/247/75 152/248/75 185/305/75 184/303/75
f 138/234/76 139/235/76 172/279/76 171/277/76
f 152/248/77 153/249/77 186/307/77 185/305/77
f 139/235/78 140/236/78 173/281/78 172/279/78
f 153/249/79 154/250/79 187/309/79 186/307/79
f 140/236/80 141/237/80 174/283/80 173/281/80
f 154/250/81 155/251/81 188/311/81 187/309/81
f 141/237/82 142/238/82 175/285/82 174/283/82
f 129/225/83 130/226/83 162/259/83 161/257/83
f 155/251/84 156/252/84 189/313/84 188/311/84
f 142/238/85 143/239/85 176/287/85 175/285/85
f 160/256/86 129/225/86 161/257/86 163/261/86
f 156/252/87 157/253/87 190/315/87 189/313/87
f 143/239/88 144/240/88 177/289/88 176/287/88
f 130/226/89 131/227/89 164/263/89 162/259/89
f 157/253/90 158/254/90 191/317/90 190/315/90
f 144/240/91 145/241/91 178/291/91 177/289/91
f 131/227/92 132/228/92 165/265/92 164/263/92
f 158/254/93 159/255/93 192/319/93 191/317/93
f 145/241/94 146/242/94 179/293/94 178/291/94
f 132/228/95 133/229/95 166/267/95 165/265/95
f 159/255/96 160/256/96 163/261/96 192/319/96
f 146/242/97 147/243/97 180/295/97 179/293/97
f 10/20/98 106/180/98 107/182/98 11/22/98
f 86/140/33 85/138/33 193/321/33
f 73/114/33 72/112/33 193/321/33
f 87/142/33 86/140/33 193/321/33
f 74/116/33 73/114/33 193/321/33
f 88/144/33 87/142/33 193/321/33
f 75/118/33 74/116/33 193/321/33
f 89/146/33 88/144/33 193/321/33
f 76/120/33 75/118/33 193/321/33
f 90/148/33 89/146/33 193/321/33
f 77/122/33 76/120/33 193/321/33
f 91/150/33 90/148/33 193/321/33
f 78/124/33 77/122/33 193/321/33
f 92/152/33 91/150/33 193/321/33
f 79/126/33 78/124/33 193/321/33
f 66/100/33 65/98/33 193/321/33
f 93/154/33 92/152/33 193/321/33
f 80/128/33 79/126/33 193/321/33
f 65/98/33 67/102/33 193/321/33
f 94/156/33 93/154/33 193/321/33
f 81/130/33 80/128/33 193/321/33
f 68/104/33 66/100/33 193/321/33
f 95/158/33 94/156/33 193/321/33
f 82/132/33 81/130/33 193/321/33
f 69/106/33 68/104/33 193/321/33
f 96/160/33 95/158/33 193/321/33
f 83/134/33 82/132/33 193/321/33
f 70/108/33 69/106/33 193/321/33
f 67/102/33 96/160/33 193/321/33
f 84/136/33 83/134/33 193/321/33
f 71/110/33 70/108/33 193/321/33
f 85/138/33 84/136/33 193/321/33
f 185/306/66 186/308/66 194/322/66
f 172/280/66 173/282/66 194/322/66
f 186/308/66 187/310/66 194/322/66
f 173/282/66 174/284/66 194/322/66
f 187/310/66 188/312/66 194/322/66
f 174/284/66 175/286/66 194/322/66
f 161/258/66 162/260/66 194/322/66
f 188/312/66 189/314/66 194/322/66
f 175/286/66 176/288/66 194/322/66
f 163/262/66 161/258/66 194/322/66
f 189/314/66 190/316/66 194/322/66
f 176/288/66 177/290/66 194/322/66
f 162/260/66 164/264/66 194/322/66
f 190/316/66 191/318/66 194/322/66
f 177/290/66 178/292/66 194/322/66
f 164/264/66 165/266/66 194/322/66
f 191/318/66 192/320/66 194/322/66
f 178/292/66 179/294/66 194/322/66
f 165/266/66 166/268/66 194/322/66
f 192/320/66 163/262/66 194/322/66
f 179/294/66 180/296/66 194/322/66
f 166/268/66 167/270/66 194/322/66
f 180/296/66 181/298/66 194/322/66
f 167/270/66 168/272/66 194/322/66
f 181/298/66 182/300/66 194/322/66
f 168/272/66 169/274/66 194/322/66
f 182/300/66 183/302/66 194/322/66
f 169/274/66 170/276/66 194/322/66
f 183/302/66 184/304/66 194/322/66
f 170/276/66 171/278/66 194/322/66
f 184/304/66 185/306/66 194/322/66
